<?xml version="1.0" ?><svg height="32" id="svg4063" version="1.1" viewBox="0 0 32 32.000001" width="32" xmlns="http://www.w3.org/2000/svg" xmlns:cc="http://creativecommons.org/ns#" xmlns:dc="http://purl.org/dc/elements/1.1/" xmlns:inkscape="http://www.inkscape.org/namespaces/inkscape" xmlns:rdf="http://www.w3.org/1999/02/22-rdf-syntax-ns#" xmlns:sodipodi="http://sodipodi.sourceforge.net/DTD/sodipodi-0.dtd" xmlns:svg="http://www.w3.org/2000/svg"><defs id="defs4065"/><g id="layer1" transform="translate(0,-1020.3621)"><g id="g5324"><g id="g5317"><path d="m 6.0000029,1027.8585 20.0000021,0 c 0.830999,0 1.499998,0.669 1.499998,1.5 l 0,14 c 0,0.831 -0.668999,1.5 -1.499998,1.5 l -20.0000021,0 c -0.830999,0 -1.4999981,-0.669 -1.4999981,-1.5 l 0,-14 c 0,-0.831 0.6689991,-1.5 1.4999981,-1.5 z" id="rect4144" style="opacity:1;fill:#ffffff;fill-opacity:1;stroke:none;stroke-width:1;stroke-linecap:round;stroke-linejoin:round;stroke-miterlimit:4.0999999;stroke-dasharray:none"/><path d="m 5.99909,1027.8576 c -0.831,0 -1.5,0.669 -1.5,1.5 l 0,14 c 0,0.831 0.669,1.5 1.5,1.5 l 1.5,0 0,-13.5 8.5,7 8.50195,-7 0,13.5 1.49805,0 c 0.831,0 1.5,-0.669 1.5,-1.5 l 0,-14 c 0,-0.831 -0.669,-1.5 -1.5,-1.5 l -1.49805,0 -8.50195,7 -8.5,-7 -1.5,0 z" id="rect4136" style="opacity:1;fill:#d50707;fill-opacity:1;stroke:none;stroke-width:1;stroke-linecap:round;stroke-linejoin:round;stroke-miterlimit:4.0999999;stroke-dasharray:none"/><path d="m 6,1027.3594 c -1.0993507,0 -2,0.9006 -2,2 l 0,14 c 0,1.0993 0.9006493,2 2,2 l 20,0 c 1.099351,0 2,-0.9007 2,-2 l 0,-14 c 0,-1.0994 -0.900649,-2 -2,-2 l -20,0 z m 0,1 20,0 c 0.562647,0 1,0.4373 1,1 l 0,14 c 0,0.5626 -0.437353,1 -1,1 l -20,0 c -0.5626473,0 -1,-0.4374 -1,-1 l 0,-14 c 0,-0.5627 0.4373527,-1 1,-1 z" id="rect3773" style="color:#000000;font-style:normal;font-variant:normal;font-weight:normal;font-stretch:normal;font-size:medium;line-height:normal;font-family:sans-serif;text-indent:0;text-align:start;text-decoration:none;text-decoration-line:none;text-decoration-style:solid;text-decoration-color:#000000;letter-spacing:normal;word-spacing:normal;text-transform:none;direction:ltr;block-progression:tb;writing-mode:lr-tb;baseline-shift:baseline;text-anchor:start;white-space:normal;clip-rule:nonzero;display:inline;overflow:visible;visibility:visible;opacity:1;isolation:auto;mix-blend-mode:normal;color-interpolation:sRGB;color-interpolation-filters:linearRGB;solid-color:#000000;solid-opacity:1;fill:#000000;fill-opacity:1;fill-rule:nonzero;stroke:none;stroke-width:1;stroke-linecap:round;stroke-linejoin:round;stroke-miterlimit:4.0999999;stroke-dasharray:none;stroke-dashoffset:0;stroke-opacity:1;color-rendering:auto;image-rendering:auto;shape-rendering:auto;text-rendering:auto;enable-background:accumulate"/><path d="m 7.5,1027.3594 a 0.50005,0.50005 0 0 0 -0.3183594,0.8847 l 8.5000004,7 a 0.50005,0.50005 0 0 0 0.636718,0 l 8.5,-7 A 0.50005,0.50005 0 0 0 24.5,1027.3594 l -17,0 z m 1.3945312,1 14.2109378,0 L 16,1034.2109 8.8945312,1028.3594 Z" id="path3775" style="color:#000000;font-style:normal;font-variant:normal;font-weight:normal;font-stretch:normal;font-size:medium;line-height:normal;font-family:sans-serif;text-indent:0;text-align:start;text-decoration:none;text-decoration-line:none;text-decoration-style:solid;text-decoration-color:#000000;letter-spacing:normal;word-spacing:normal;text-transform:none;direction:ltr;block-progression:tb;writing-mode:lr-tb;baseline-shift:baseline;text-anchor:start;white-space:normal;clip-rule:nonzero;display:inline;overflow:visible;visibility:visible;opacity:1;isolation:auto;mix-blend-mode:normal;color-interpolation:sRGB;color-interpolation-filters:linearRGB;solid-color:#000000;solid-opacity:1;fill:#000000;fill-opacity:1;fill-rule:nonzero;stroke:none;stroke-width:1;stroke-linecap:round;stroke-linejoin:round;stroke-miterlimit:4.0999999;stroke-dasharray:none;stroke-dashoffset:0;stroke-opacity:1;color-rendering:auto;image-rendering:auto;shape-rendering:auto;text-rendering:auto;enable-background:accumulate"/><path d="M 7.4941406,1030.8594 A 0.50005,0.50005 0 0 0 7,1031.3594 l 0,13.5 a 0.50005,0.50005 0 1 0 1,0 l 0,-12.4414 7.681641,6.3261 a 0.50005,0.50005 0 0 0 0.636718,0 L 24,1032.418 l 0,12.4414 a 0.50005,0.50005 0 1 0 1,0 l 0,-13.5 a 0.50005,0.50005 0 0 0 -0.818359,-0.3867 L 16,1037.7109 7.8183594,1030.9727 a 0.50005,0.50005 0 0 0 -0.3242188,-0.1133 z" id="path3777" style="color:#000000;font-style:normal;font-variant:normal;font-weight:normal;font-stretch:normal;font-size:medium;line-height:normal;font-family:sans-serif;text-indent:0;text-align:start;text-decoration:none;text-decoration-line:none;text-decoration-style:solid;text-decoration-color:#000000;letter-spacing:normal;word-spacing:normal;text-transform:none;direction:ltr;block-progression:tb;writing-mode:lr-tb;baseline-shift:baseline;text-anchor:start;white-space:normal;clip-rule:nonzero;display:inline;overflow:visible;visibility:visible;opacity:1;isolation:auto;mix-blend-mode:normal;color-interpolation:sRGB;color-interpolation-filters:linearRGB;solid-color:#000000;solid-opacity:1;fill:#000000;fill-opacity:1;fill-rule:nonzero;stroke:none;stroke-width:1;stroke-linecap:round;stroke-linejoin:round;stroke-miterlimit:4.0999999;stroke-dasharray:none;stroke-dashoffset:0;stroke-opacity:1;color-rendering:auto;image-rendering:auto;shape-rendering:auto;text-rendering:auto;enable-background:accumulate"/></g></g></g></svg>