<?xml version="1.0" encoding="UTF-8" standalone="no"?>
<svg
   xmlns:dc="http://purl.org/dc/elements/1.1/"
   xmlns:cc="http://creativecommons.org/ns#"
   xmlns:rdf="http://www.w3.org/1999/02/22-rdf-syntax-ns#"
   xmlns:svg="http://www.w3.org/2000/svg"
   xmlns="http://www.w3.org/2000/svg"
   xmlns:sodipodi="http://sodipodi.sourceforge.net/DTD/sodipodi-0.dtd"
   xmlns:inkscape="http://www.inkscape.org/namespaces/inkscape"
   inkscape:export-ydpi="576"
   inkscape:export-xdpi="576"
   inkscape:export-filename="D:\Project Real\adnan #2.2\export Flat\PNG\19 - Bathtub.png"
   width="64pt"
   height="64pt"
   viewBox="0 0 22.577778 22.577778"
   version="1.1"
   id="svg831"
   inkscape:version="1.0 (4035a4fb49, 2020-05-01)"
   sodipodi:docname="20 - Telephone.svg">
  <defs
     id="defs825">
    <pattern
       id="EMFhbasepattern"
       patternUnits="userSpaceOnUse"
       width="6"
       height="6"
       x="0"
       y="0" />
    <pattern
       id="EMFhbasepattern-9"
       patternUnits="userSpaceOnUse"
       width="6"
       height="6"
       x="0"
       y="0" />
    <pattern
       id="EMFhbasepattern-0"
       patternUnits="userSpaceOnUse"
       width="6"
       height="6"
       x="0"
       y="0" />
    <pattern
       id="EMFhbasepattern-7"
       patternUnits="userSpaceOnUse"
       width="6"
       height="6"
       x="0"
       y="0" />
    <pattern
       id="EMFhbasepattern-2"
       patternUnits="userSpaceOnUse"
       width="6"
       height="6"
       x="0"
       y="0" />
    <pattern
       id="EMFhbasepattern-98"
       patternUnits="userSpaceOnUse"
       width="6"
       height="6"
       x="0"
       y="0" />
    <pattern
       id="EMFhbasepattern-6"
       patternUnits="userSpaceOnUse"
       width="6"
       height="6"
       x="0"
       y="0" />
    <pattern
       id="EMFhbasepattern-01"
       patternUnits="userSpaceOnUse"
       width="6"
       height="6"
       x="0"
       y="0" />
    <pattern
       id="EMFhbasepattern-07"
       patternUnits="userSpaceOnUse"
       width="6"
       height="6"
       x="0"
       y="0" />
    <pattern
       id="EMFhbasepattern-8"
       patternUnits="userSpaceOnUse"
       width="6"
       height="6"
       x="0"
       y="0" />
    <pattern
       id="EMFhbasepattern-4"
       patternUnits="userSpaceOnUse"
       width="6"
       height="6"
       x="0"
       y="0" />
    <pattern
       id="EMFhbasepattern-40"
       patternUnits="userSpaceOnUse"
       width="6"
       height="6"
       x="0"
       y="0" />
    <pattern
       id="EMFhbasepattern-08"
       patternUnits="userSpaceOnUse"
       width="6"
       height="6"
       x="0"
       y="0" />
    <pattern
       id="EMFhbasepattern-04"
       patternUnits="userSpaceOnUse"
       width="6"
       height="6"
       x="0"
       y="0" />
    <pattern
       id="EMFhbasepattern-014"
       patternUnits="userSpaceOnUse"
       width="6"
       height="6"
       x="0"
       y="0" />
    <pattern
       id="EMFhbasepattern-27"
       patternUnits="userSpaceOnUse"
       width="6"
       height="6"
       x="0"
       y="0" />
    <pattern
       id="EMFhbasepattern-09"
       patternUnits="userSpaceOnUse"
       width="6"
       height="6"
       x="0"
       y="0" />
    <pattern
       id="EMFhbasepattern-5"
       patternUnits="userSpaceOnUse"
       width="6"
       height="6"
       x="0"
       y="0" />
    <pattern
       id="EMFhbasepattern-018"
       patternUnits="userSpaceOnUse"
       width="6"
       height="6"
       x="0"
       y="0" />
  </defs>
  <sodipodi:namedview
     id="base"
     pagecolor="#ffffff"
     bordercolor="#666666"
     borderopacity="1.0"
     inkscape:pageopacity="0.0"
     inkscape:pageshadow="2"
     inkscape:zoom="6.2578125"
     inkscape:cx="42.666667"
     inkscape:cy="42.666667"
     inkscape:document-units="pt"
     inkscape:current-layer="layer1"
     showgrid="false"
     units="pt"
     inkscape:window-width="1366"
     inkscape:window-height="706"
     inkscape:window-x="-8"
     inkscape:window-y="-8"
     inkscape:window-maximized="1"
     inkscape:pagecheckerboard="true"
     inkscape:showpageshadow="false"
     inkscape:object-paths="true"
     inkscape:snap-intersection-paths="true"
     inkscape:snap-smooth-nodes="true"
     inkscape:snap-midpoints="true"
     showguides="true"
     inkscape:snap-bbox="true"
     inkscape:bbox-nodes="true"
     inkscape:snap-nodes="false"
     inkscape:snap-global="true"
     inkscape:document-rotation="0">
    <inkscape:grid
       type="xygrid"
       id="grid1378" />
    <sodipodi:guide
       position="0.97013831,21.607643"
       orientation="78.000048,0"
       id="guide1380"
       inkscape:locked="false" />
    <sodipodi:guide
       position="0.97013831,0.97013129"
       orientation="0,78.000005"
       id="guide1382"
       inkscape:locked="false" />
    <sodipodi:guide
       position="21.607639,0.97013129"
       orientation="-78.000048,0"
       id="guide1384"
       inkscape:locked="false" />
    <sodipodi:guide
       position="21.607639,21.607643"
       orientation="0,-78.000005"
       id="guide1386"
       inkscape:locked="false" />
  </sodipodi:namedview>
  <metadata
     id="metadata828">
    <rdf:RDF>
      <cc:Work
         rdf:about="">
        <dc:format>image/svg+xml</dc:format>
        <dc:type
           rdf:resource="http://purl.org/dc/dcmitype/StillImage" />
        <dc:title></dc:title>
      </cc:Work>
    </rdf:RDF>
  </metadata>
  <g
     inkscape:label="Icon"
     inkscape:groupmode="layer"
     id="layer1"
     transform="translate(0,-274.42223)">
    <g
       transform="matrix(1.2482622,0,0,1.2482622,-75.422911,-74.455187)"
       style="display:inline;stroke-width:0.801114"
       id="g1162">
      <path
         sodipodi:nodetypes="scccsscccccccccccscccsccccccccs"
         id="path1710"
         d="m 76.486339,284.69346 c -0.408957,-0.40907 -0.979314,-0.75973 -1.671875,-1.05274 -1.385121,-0.586 -3.265796,-0.93749 -5.341797,-0.9375 l -1.1e-5,-10e-5 c -2.076,0 -3.956675,0.3515 -5.341797,0.9375 -0.69256,0.29301 -1.262917,0.64367 -1.671875,1.05274 -0.408958,0.40906 -0.671014,0.84751 -0.648557,1.29152 l -0.536991,0.82371 c -0.05347,0.0806 -0.05871,0.18394 -0.01367,0.26953 0.211679,0.40692 0.481932,0.57659 0.677734,0.67774 0.967596,0.56265 1.948615,0.50452 2.818359,0 0.305622,-0.16587 0.496942,-0.41765 0.658203,-0.64648 0.06312,-0.088 0.06621,-0.20565 0.0078,-0.29688 l -0.419922,-0.6543 c 0.08422,-0.0445 0.218968,-0.098 0.404297,-0.14843 0.388755,-0.10582 0.964558,-0.2004 1.652344,-0.26758 l 1.095703,-0.0781 c 0.418086,-0.02 0.860863,-0.0312 1.318359,-0.0312 0.443377,0 0.872745,0.0104 1.279297,0.0293 h 0.0078 l 1.130859,0.0801 c 0.685494,0.0671 1.258504,0.16206 1.646484,0.26758 0.185639,0.0505 0.321887,0.10387 0.40625,0.14843 l -0.419921,0.6543 c -0.05898,0.0908 -0.05664,0.20845 0.0059,0.29688 0.161263,0.22883 0.354533,0.48061 0.660156,0.64648 0.870289,0.50484 1.850175,0.56377 2.818359,0 0.195843,-0.10114 0.466059,-0.27082 0.677735,-0.67774 0.04446,-0.0859 0.03847,-0.1893 -0.01563,-0.26953 l -0.536014,-0.83457 c 0.02148,-0.44401 -0.238621,-0.8716 -0.647579,-1.28066 z"
         style="color:#000000;font-style:normal;font-variant:normal;font-weight:normal;font-stretch:normal;font-size:medium;line-height:normal;font-family:sans-serif;font-variant-ligatures:normal;font-variant-position:normal;font-variant-caps:normal;font-variant-numeric:normal;font-variant-alternates:normal;font-variant-east-asian:normal;font-feature-settings:normal;font-variation-settings:normal;text-indent:0;text-align:start;text-decoration:none;text-decoration-line:none;text-decoration-style:solid;text-decoration-color:#000000;letter-spacing:normal;word-spacing:normal;text-transform:none;writing-mode:lr-tb;direction:ltr;text-orientation:mixed;dominant-baseline:auto;baseline-shift:baseline;text-anchor:start;white-space:normal;shape-padding:0;shape-margin:0;inline-size:0;clip-rule:nonzero;display:inline;overflow:visible;visibility:visible;isolation:auto;mix-blend-mode:normal;color-interpolation:sRGB;color-interpolation-filters:linearRGB;solid-color:#000000;solid-opacity:1;vector-effect:none;fill:#b31e48;fill-opacity:1;fill-rule:nonzero;stroke:none;stroke-width:0.423923;stroke-linecap:round;stroke-linejoin:round;stroke-miterlimit:1.5;stroke-dasharray:none;stroke-dashoffset:0;stroke-opacity:1;color-rendering:auto;image-rendering:auto;shape-rendering:auto;text-rendering:auto;enable-background:accumulate;stop-color:#000000" />
      <path
         id="path1700"
         d="m 66.296875,293.30664 a 0.2645835,0.2645835 0 0 0 -0.263672,0.26367 v 0.5293 a 0.2645835,0.2645835 0 0 0 0.263672,0.26562 0.2645835,0.2645835 0 0 0 0.265625,-0.26562 v -0.5293 a 0.2645835,0.2645835 0 0 0 -0.265625,-0.26367 z"
         style="color:#000000;font-style:normal;font-variant:normal;font-weight:normal;font-stretch:normal;font-size:medium;line-height:normal;font-family:sans-serif;font-variant-ligatures:normal;font-variant-position:normal;font-variant-caps:normal;font-variant-numeric:normal;font-variant-alternates:normal;font-variant-east-asian:normal;font-feature-settings:normal;font-variation-settings:normal;text-indent:0;text-align:start;text-decoration:none;text-decoration-line:none;text-decoration-style:solid;text-decoration-color:#000000;letter-spacing:normal;word-spacing:normal;text-transform:none;writing-mode:lr-tb;direction:ltr;text-orientation:mixed;dominant-baseline:auto;baseline-shift:baseline;text-anchor:start;white-space:normal;shape-padding:0;shape-margin:0;inline-size:0;clip-rule:nonzero;display:inline;overflow:visible;visibility:visible;isolation:auto;mix-blend-mode:normal;color-interpolation:sRGB;color-interpolation-filters:linearRGB;solid-color:#000000;solid-opacity:1;vector-effect:none;fill:#7d8e9e;fill-opacity:1;fill-rule:nonzero;stroke:none;stroke-width:0.423923;stroke-linecap:round;stroke-linejoin:round;stroke-miterlimit:1.5;stroke-dasharray:none;stroke-dashoffset:0;stroke-opacity:1;color-rendering:auto;image-rendering:auto;shape-rendering:auto;text-rendering:auto;enable-background:accumulate;stop-color:#000000" />
      <path
         id="path1704"
         d="m 72.912109,293.30664 a 0.2645835,0.2645835 0 0 0 -0.265625,0.26367 v 0.5293 a 0.2645835,0.2645835 0 0 0 0.265625,0.26562 0.2645835,0.2645835 0 0 0 0.263672,-0.26562 v -0.5293 a 0.2645835,0.2645835 0 0 0 -0.263672,-0.26367 z"
         style="color:#000000;font-style:normal;font-variant:normal;font-weight:normal;font-stretch:normal;font-size:medium;line-height:normal;font-family:sans-serif;font-variant-ligatures:normal;font-variant-position:normal;font-variant-caps:normal;font-variant-numeric:normal;font-variant-alternates:normal;font-variant-east-asian:normal;font-feature-settings:normal;font-variation-settings:normal;text-indent:0;text-align:start;text-decoration:none;text-decoration-line:none;text-decoration-style:solid;text-decoration-color:#000000;letter-spacing:normal;word-spacing:normal;text-transform:none;writing-mode:lr-tb;direction:ltr;text-orientation:mixed;dominant-baseline:auto;baseline-shift:baseline;text-anchor:start;white-space:normal;shape-padding:0;shape-margin:0;inline-size:0;clip-rule:nonzero;display:inline;overflow:visible;visibility:visible;isolation:auto;mix-blend-mode:normal;color-interpolation:sRGB;color-interpolation-filters:linearRGB;solid-color:#000000;solid-opacity:1;vector-effect:none;fill:#7d8e9e;fill-opacity:1;fill-rule:nonzero;stroke:none;stroke-width:0.423923;stroke-linecap:round;stroke-linejoin:round;stroke-miterlimit:1.5;stroke-dasharray:none;stroke-dashoffset:0;stroke-opacity:1;color-rendering:auto;image-rendering:auto;shape-rendering:auto;text-rendering:auto;enable-background:accumulate;stop-color:#000000" />
      <path
         sodipodi:nodetypes="ccccccsscccsccccccsssssssscc"
         id="path1688"
         d="m 67.355469,284.83984 c -0.279172,0 -0.533813,0.20118 -0.570313,0.49219 l -0.134765,1.06836 c -0.194281,0.47269 -0.607976,0.93313 -0.914063,1.27149 -0.492681,0.3295 -0.754395,0.90287 -0.78125,1.38867 l -0.154297,3.76562 c -0.02251,0.54672 0.419611,1.00977 0.966797,1.00977 h 7.408203 c 0.547186,0 0.991267,-0.46305 0.96875,-1.00977 l -0.154297,-3.76367 v -0.002 c -0.01542,-0.4059 -0.183457,-0.79088 -0.470703,-1.07813 l -0.310547,-0.31054 c -0.321914,-0.34433 -0.562058,-0.66083 -0.804687,-1.03907 -0.06916,-0.11803 -0.108611,-0.22588 -0.111328,-0.24219 v 0.01 l -0.132813,-1.06836 c -6.02e-4,-0.003 -0.0013,-0.007 -0.002,-0.01 -0.04606,-0.27639 -0.288159,-0.48243 -0.568359,-0.48243 H 71.0605 c -0.289119,0 -0.529297,0.24018 -0.529297,0.5293 v 1.05859 c 0,0.14926 -0.116369,0.26368 -0.265625,0.26368 h -1.587891 c -0.149257,0 -0.263671,-0.11442 -0.263672,-0.26368 v -1.05859 c 0,-0.28912 -0.240177,-0.5293 -0.529296,-0.5293 z"
         style="color:#000000;font-style:normal;font-variant:normal;font-weight:normal;font-stretch:normal;font-size:medium;line-height:normal;font-family:sans-serif;font-variant-ligatures:normal;font-variant-position:normal;font-variant-caps:normal;font-variant-numeric:normal;font-variant-alternates:normal;font-variant-east-asian:normal;font-feature-settings:normal;font-variation-settings:normal;text-indent:0;text-align:start;text-decoration:none;text-decoration-line:none;text-decoration-style:solid;text-decoration-color:#000000;letter-spacing:normal;word-spacing:normal;text-transform:none;writing-mode:lr-tb;direction:ltr;text-orientation:mixed;dominant-baseline:auto;baseline-shift:baseline;text-anchor:start;white-space:normal;shape-padding:0;shape-margin:0;inline-size:0;clip-rule:nonzero;display:inline;overflow:visible;visibility:visible;isolation:auto;mix-blend-mode:normal;color-interpolation:sRGB;color-interpolation-filters:linearRGB;solid-color:#000000;solid-opacity:1;vector-effect:none;fill:#dc1c4b;fill-opacity:1;fill-rule:nonzero;stroke:none;stroke-width:0.423923;stroke-linecap:round;stroke-linejoin:round;stroke-miterlimit:1.5;stroke-dasharray:none;stroke-dashoffset:0;stroke-opacity:1;color-rendering:auto;image-rendering:auto;shape-rendering:auto;text-rendering:auto;enable-background:accumulate;stop-color:#000000" />
      <path
         sodipodi:nodetypes="cccccccsccccsccccccc"
         id="path1477"
         style="color:#000000;font-style:normal;font-variant:normal;font-weight:normal;font-stretch:normal;font-size:medium;line-height:normal;font-family:sans-serif;font-variant-ligatures:normal;font-variant-position:normal;font-variant-caps:normal;font-variant-numeric:normal;font-variant-alternates:normal;font-variant-east-asian:normal;font-feature-settings:normal;font-variation-settings:normal;text-indent:0;text-align:start;text-decoration:none;text-decoration-line:none;text-decoration-style:solid;text-decoration-color:#000000;letter-spacing:normal;word-spacing:normal;text-transform:none;writing-mode:lr-tb;direction:ltr;text-orientation:mixed;dominant-baseline:auto;baseline-shift:baseline;text-anchor:start;white-space:normal;shape-padding:0;shape-margin:0;inline-size:0;clip-rule:nonzero;display:inline;overflow:visible;visibility:visible;isolation:auto;mix-blend-mode:normal;color-interpolation:sRGB;color-interpolation-filters:linearRGB;solid-color:#000000;solid-opacity:1;vector-effect:none;fill:#a11d41;fill-opacity:1;fill-rule:nonzero;stroke:none;stroke-width:0.423923;stroke-linecap:round;stroke-linejoin:round;stroke-miterlimit:1.5;stroke-dasharray:none;stroke-dashoffset:0;stroke-opacity:1;color-rendering:auto;image-rendering:auto;shape-rendering:auto;text-rendering:auto;enable-background:accumulate;stop-color:#000000"
         d="m 67.884748,284.37802 -0.529167,0.001 c -0.500549,0 -0.961157,0.36901 -1.027329,0.89658 l -0.07131,0.56638 c 0.245298,-0.037 0.510392,-0.0713 0.801502,-0.0997 l 1.096058,-0.078 c 0.232608,-0.0111 0.474191,-0.019 0.720368,-0.0243 v -0.2713 c 0,-0.54431 -0.445805,-0.99064 -0.990119,-0.99064 z m 3.705248,-3.3e-4 -0.529732,3.3e-4 c -0.544317,0 -0.990121,0.44633 -0.990121,0.99064 v 0.2713 c 0.232677,0.005 0.460968,0.012 0.681612,0.0222 h 0.0078 l 1.131197,0.0801 c 0.289346,0.0283 0.553043,0.0623 0.796851,0.0992 l -0.07338,-0.58254 c -0.08725,-0.51225 -0.519082,-0.88123 -1.024227,-0.88123 z" />
      <path
         sodipodi:nodetypes="sssssssscccccsscscccccs"
         d="m 71.589898,284.84009 h -0.529683 c -0.289118,0 -0.529167,0.24004 -0.529167,0.52916 v 1.05834 c 0,0.14926 -0.116361,0.26406 -0.265617,0.26406 h -1.588016 c -0.149257,0 -0.263549,-0.1148 -0.263549,-0.26406 v -1.05834 c 0,-0.28912 -0.240049,-0.52916 -0.529167,-0.52916 l -0.529118,-8e-5 c -0.279172,0 -0.534008,0.20095 -0.570507,0.49196 l -0.134877,1.06867 c -0.05201,0.16306 -0.136779,0.28559 -0.224277,0.4222 1.107848,1.16812 2.344023,2.26444 3.491262,3.41168 0.884044,0.88405 1.3652,1.90759 2.365746,2.7652 0.201183,0.17244 0.412493,0.54125 0.664559,0.83613 h 0.228409 c 0.547188,0 0.990934,-0.46304 0.968418,-1.00976 l -0.161711,-3.96755 c -0.0077,-0.20395 -0.175813,-0.58877 -0.463058,-0.87602 -0.484538,-0.48571 -0.98592,-1.07021 -1.226799,-1.58663 l -0.133607,-1.06866 c -0.04686,-0.28139 -0.28904,-0.48714 -0.569241,-0.48714 z"
         style="fill:#b31e48;fill-opacity:1;stroke-width:0.423923;stroke-linecap:round;stroke-linejoin:round;stroke-miterlimit:1.5"
         id="path1758" />
      <path
         id="path1674"
         d="m 69.472656,287.73242 c -1.392037,0 -2.527348,1.13335 -2.527344,2.52539 -4e-6,1.39204 1.135307,2.52539 2.527344,2.52539 1.392037,0 2.525395,-1.13335 2.525391,-2.52539 4e-6,-1.39203 -1.133354,-2.52539 -2.525391,-2.52539 z"
         style="color:#000000;font-style:normal;font-variant:normal;font-weight:normal;font-stretch:normal;font-size:medium;line-height:normal;font-family:sans-serif;font-variant-ligatures:normal;font-variant-position:normal;font-variant-caps:normal;font-variant-numeric:normal;font-variant-alternates:normal;font-variant-east-asian:normal;font-feature-settings:normal;font-variation-settings:normal;text-indent:0;text-align:start;text-decoration:none;text-decoration-line:none;text-decoration-style:solid;text-decoration-color:#000000;letter-spacing:normal;word-spacing:normal;text-transform:none;writing-mode:lr-tb;direction:ltr;text-orientation:mixed;dominant-baseline:auto;baseline-shift:baseline;text-anchor:start;white-space:normal;shape-padding:0;shape-margin:0;inline-size:0;clip-rule:nonzero;display:inline;overflow:visible;visibility:visible;isolation:auto;mix-blend-mode:normal;color-interpolation:sRGB;color-interpolation-filters:linearRGB;solid-color:#000000;solid-opacity:1;vector-effect:none;fill:#f5f6e8;fill-opacity:1;fill-rule:nonzero;stroke:none;stroke-width:0.423921;stroke-linecap:round;stroke-linejoin:round;stroke-miterlimit:1.5;stroke-dasharray:none;stroke-dashoffset:0;stroke-opacity:1;color-rendering:auto;image-rendering:auto;shape-rendering:auto;text-rendering:auto;enable-background:accumulate;stop-color:#000000" />
      <path
         sodipodi:nodetypes="ccccccccc"
         id="path1724"
         style="color:#000000;font-style:normal;font-variant:normal;font-weight:normal;font-stretch:normal;font-size:medium;line-height:normal;font-family:sans-serif;font-variant-ligatures:normal;font-variant-position:normal;font-variant-caps:normal;font-variant-numeric:normal;font-variant-alternates:normal;font-variant-east-asian:normal;font-feature-settings:normal;font-variation-settings:normal;text-indent:0;text-align:start;text-decoration:none;text-decoration-line:none;text-decoration-style:solid;text-decoration-color:#000000;letter-spacing:normal;word-spacing:normal;text-transform:none;writing-mode:lr-tb;direction:ltr;text-orientation:mixed;dominant-baseline:auto;baseline-shift:baseline;text-anchor:start;white-space:normal;shape-padding:0;shape-margin:0;inline-size:0;clip-rule:nonzero;display:inline;overflow:visible;visibility:visible;isolation:auto;mix-blend-mode:normal;color-interpolation:sRGB;color-interpolation-filters:linearRGB;solid-color:#000000;solid-opacity:1;vector-effect:none;fill:#f5f6e8;fill-opacity:1;fill-rule:nonzero;stroke:none;stroke-width:0.423922;stroke-linecap:round;stroke-linejoin:round;stroke-miterlimit:1.5;stroke-dasharray:none;stroke-dashoffset:0;stroke-opacity:1;color-rendering:auto;image-rendering:auto;shape-rendering:auto;text-rendering:auto;enable-background:accumulate;stop-color:#000000"
         d="m 61.798408,285.98218 -0.554159,0.82265 c -0.05424,0.0818 -0.05946,0.18672 -0.01363,0.27353 0.214647,0.41262 0.488428,0.58493 0.686975,0.6875 0.98116,0.57053 1.976003,0.51159 2.857937,0 0.309907,-0.1682 0.504065,-0.42402 0.667589,-0.65606 0.06389,-0.0892 0.06702,-0.20834 0.0079,-0.30078 l -0.429683,-0.66755 c -1.12788,0.51421 -2.228243,0.40588 -3.222929,-0.15929 z" />
      <path
         id="path1589"
         d="m 70.199219,290.87109 c -0.289217,0.001 -0.52849,0.24204 -0.527344,0.53125 0.0019,0.28705 0.240118,0.5244 0.527344,0.52539 0.288673,10e-4 0.527415,-0.23885 0.529297,-0.52734 -6.29e-4,-0.28924 -0.239698,-0.53043 -0.529297,-0.5293 z"
         style="color:#000000;font-style:normal;font-variant:normal;font-weight:normal;font-stretch:normal;font-size:medium;line-height:normal;font-family:sans-serif;font-variant-ligatures:normal;font-variant-position:normal;font-variant-caps:normal;font-variant-numeric:normal;font-variant-alternates:normal;font-variant-east-asian:normal;font-feature-settings:normal;font-variation-settings:normal;text-indent:0;text-align:start;text-decoration:none;text-decoration-line:none;text-decoration-style:solid;text-decoration-color:#000000;letter-spacing:normal;word-spacing:normal;text-transform:none;writing-mode:lr-tb;direction:ltr;text-orientation:mixed;dominant-baseline:auto;baseline-shift:baseline;text-anchor:start;white-space:normal;shape-padding:0;shape-margin:0;inline-size:0;clip-rule:nonzero;display:inline;overflow:visible;visibility:visible;isolation:auto;mix-blend-mode:normal;color-interpolation:sRGB;color-interpolation-filters:linearRGB;solid-color:#000000;solid-opacity:1;vector-effect:none;fill:#d0e2ee;fill-opacity:1;fill-rule:nonzero;stroke:none;stroke-width:0.423923;stroke-linecap:round;stroke-linejoin:round;stroke-miterlimit:1.5;stroke-dasharray:none;stroke-dashoffset:0;stroke-opacity:1;color-rendering:auto;image-rendering:auto;shape-rendering:auto;text-rendering:auto;enable-background:accumulate;stop-color:#000000" />
      <path
         id="path1596"
         d="m 68.802734,290.90234 c -0.289217,0.001 -0.528489,0.24204 -0.527343,0.53125 9.91e-4,0.28776 0.239585,0.52636 0.527343,0.52735 0.289209,0.001 0.530254,-0.23814 0.53125,-0.52735 0.0012,-0.29066 -0.240581,-0.53239 -0.53125,-0.53125 z"
         style="color:#000000;font-style:normal;font-variant:normal;font-weight:normal;font-stretch:normal;font-size:medium;line-height:normal;font-family:sans-serif;font-variant-ligatures:normal;font-variant-position:normal;font-variant-caps:normal;font-variant-numeric:normal;font-variant-alternates:normal;font-variant-east-asian:normal;font-feature-settings:normal;font-variation-settings:normal;text-indent:0;text-align:start;text-decoration:none;text-decoration-line:none;text-decoration-style:solid;text-decoration-color:#000000;letter-spacing:normal;word-spacing:normal;text-transform:none;writing-mode:lr-tb;direction:ltr;text-orientation:mixed;dominant-baseline:auto;baseline-shift:baseline;text-anchor:start;white-space:normal;shape-padding:0;shape-margin:0;inline-size:0;clip-rule:nonzero;display:inline;overflow:visible;visibility:visible;isolation:auto;mix-blend-mode:normal;color-interpolation:sRGB;color-interpolation-filters:linearRGB;solid-color:#000000;solid-opacity:1;vector-effect:none;fill:#d0e2ee;fill-opacity:1;fill-rule:nonzero;stroke:none;stroke-width:0.423923;stroke-linecap:round;stroke-linejoin:round;stroke-miterlimit:1.5;stroke-dasharray:none;stroke-dashoffset:0;stroke-opacity:1;color-rendering:auto;image-rendering:auto;shape-rendering:auto;text-rendering:auto;enable-background:accumulate;stop-color:#000000" />
      <path
         id="path1602"
         d="m 70.830078,289.79102 c -0.289217,9.9e-4 -0.528489,0.24203 -0.527344,0.53125 9.92e-4,0.28775 0.239586,0.52635 0.527344,0.52734 0.289209,0.001 0.530254,-0.23813 0.53125,-0.52734 0.0012,-0.29067 -0.240582,-0.5324 -0.53125,-0.53125 z"
         style="color:#000000;font-style:normal;font-variant:normal;font-weight:normal;font-stretch:normal;font-size:medium;line-height:normal;font-family:sans-serif;font-variant-ligatures:normal;font-variant-position:normal;font-variant-caps:normal;font-variant-numeric:normal;font-variant-alternates:normal;font-variant-east-asian:normal;font-feature-settings:normal;font-variation-settings:normal;text-indent:0;text-align:start;text-decoration:none;text-decoration-line:none;text-decoration-style:solid;text-decoration-color:#000000;letter-spacing:normal;word-spacing:normal;text-transform:none;writing-mode:lr-tb;direction:ltr;text-orientation:mixed;dominant-baseline:auto;baseline-shift:baseline;text-anchor:start;white-space:normal;shape-padding:0;shape-margin:0;inline-size:0;clip-rule:nonzero;display:inline;overflow:visible;visibility:visible;isolation:auto;mix-blend-mode:normal;color-interpolation:sRGB;color-interpolation-filters:linearRGB;solid-color:#000000;solid-opacity:1;vector-effect:none;fill:#d0e2ee;fill-opacity:1;fill-rule:nonzero;stroke:none;stroke-width:0.423923;stroke-linecap:round;stroke-linejoin:round;stroke-miterlimit:1.5;stroke-dasharray:none;stroke-dashoffset:0;stroke-opacity:1;color-rendering:auto;image-rendering:auto;shape-rendering:auto;text-rendering:auto;enable-background:accumulate;stop-color:#000000" />
      <path
         id="path1608"
         d="m 68.132812,289.79102 c -0.289216,9.9e-4 -0.528489,0.24203 -0.527343,0.53125 9.92e-4,0.28775 0.239585,0.52635 0.527343,0.52734 0.289209,0.001 0.530254,-0.23813 0.53125,-0.52734 0.0012,-0.29067 -0.240581,-0.5324 -0.53125,-0.53125 z"
         style="color:#000000;font-style:normal;font-variant:normal;font-weight:normal;font-stretch:normal;font-size:medium;line-height:normal;font-family:sans-serif;font-variant-ligatures:normal;font-variant-position:normal;font-variant-caps:normal;font-variant-numeric:normal;font-variant-alternates:normal;font-variant-east-asian:normal;font-feature-settings:normal;font-variation-settings:normal;text-indent:0;text-align:start;text-decoration:none;text-decoration-line:none;text-decoration-style:solid;text-decoration-color:#000000;letter-spacing:normal;word-spacing:normal;text-transform:none;writing-mode:lr-tb;direction:ltr;text-orientation:mixed;dominant-baseline:auto;baseline-shift:baseline;text-anchor:start;white-space:normal;shape-padding:0;shape-margin:0;inline-size:0;clip-rule:nonzero;display:inline;overflow:visible;visibility:visible;isolation:auto;mix-blend-mode:normal;color-interpolation:sRGB;color-interpolation-filters:linearRGB;solid-color:#000000;solid-opacity:1;vector-effect:none;fill:#d0e2ee;fill-opacity:1;fill-rule:nonzero;stroke:none;stroke-width:0.423923;stroke-linecap:round;stroke-linejoin:round;stroke-miterlimit:1.5;stroke-dasharray:none;stroke-dashoffset:0;stroke-opacity:1;color-rendering:auto;image-rendering:auto;shape-rendering:auto;text-rendering:auto;enable-background:accumulate;stop-color:#000000" />
      <path
         id="path1614"
         d="m 70.199219,288.75391 c -0.289217,9.9e-4 -0.52849,0.24203 -0.527344,0.53125 9.92e-4,0.28775 0.239585,0.52635 0.527344,0.52734 0.289209,10e-4 0.530253,-0.23813 0.53125,-0.52734 0.0012,-0.29067 -0.240582,-0.53239 -0.53125,-0.53125 z"
         style="color:#000000;font-style:normal;font-variant:normal;font-weight:normal;font-stretch:normal;font-size:medium;line-height:normal;font-family:sans-serif;font-variant-ligatures:normal;font-variant-position:normal;font-variant-caps:normal;font-variant-numeric:normal;font-variant-alternates:normal;font-variant-east-asian:normal;font-feature-settings:normal;font-variation-settings:normal;text-indent:0;text-align:start;text-decoration:none;text-decoration-line:none;text-decoration-style:solid;text-decoration-color:#000000;letter-spacing:normal;word-spacing:normal;text-transform:none;writing-mode:lr-tb;direction:ltr;text-orientation:mixed;dominant-baseline:auto;baseline-shift:baseline;text-anchor:start;white-space:normal;shape-padding:0;shape-margin:0;inline-size:0;clip-rule:nonzero;display:inline;overflow:visible;visibility:visible;isolation:auto;mix-blend-mode:normal;color-interpolation:sRGB;color-interpolation-filters:linearRGB;solid-color:#000000;solid-opacity:1;vector-effect:none;fill:#d0e2ee;fill-opacity:1;fill-rule:nonzero;stroke:none;stroke-width:0.423923;stroke-linecap:round;stroke-linejoin:round;stroke-miterlimit:1.5;stroke-dasharray:none;stroke-dashoffset:0;stroke-opacity:1;color-rendering:auto;image-rendering:auto;shape-rendering:auto;text-rendering:auto;enable-background:accumulate;stop-color:#000000" />
      <path
         id="path1620"
         d="m 68.802734,288.72266 c -0.289217,9.9e-4 -0.528489,0.24203 -0.527343,0.53125 0.0019,0.28704 0.240118,0.5244 0.527343,0.52539 0.288674,0.001 0.527416,-0.23886 0.529297,-0.52735 -6.29e-4,-0.28924 -0.239697,-0.53043 -0.529297,-0.52929 z"
         style="color:#000000;font-style:normal;font-variant:normal;font-weight:normal;font-stretch:normal;font-size:medium;line-height:normal;font-family:sans-serif;font-variant-ligatures:normal;font-variant-position:normal;font-variant-caps:normal;font-variant-numeric:normal;font-variant-alternates:normal;font-variant-east-asian:normal;font-feature-settings:normal;font-variation-settings:normal;text-indent:0;text-align:start;text-decoration:none;text-decoration-line:none;text-decoration-style:solid;text-decoration-color:#000000;letter-spacing:normal;word-spacing:normal;text-transform:none;writing-mode:lr-tb;direction:ltr;text-orientation:mixed;dominant-baseline:auto;baseline-shift:baseline;text-anchor:start;white-space:normal;shape-padding:0;shape-margin:0;inline-size:0;clip-rule:nonzero;display:inline;overflow:visible;visibility:visible;isolation:auto;mix-blend-mode:normal;color-interpolation:sRGB;color-interpolation-filters:linearRGB;solid-color:#000000;solid-opacity:1;vector-effect:none;fill:#d0e2ee;fill-opacity:1;fill-rule:nonzero;stroke:none;stroke-width:0.423923;stroke-linecap:round;stroke-linejoin:round;stroke-miterlimit:1.5;stroke-dasharray:none;stroke-dashoffset:0;stroke-opacity:1;color-rendering:auto;image-rendering:auto;shape-rendering:auto;text-rendering:auto;enable-background:accumulate;stop-color:#000000" />
      <path
         id="path1626"
         d="m 69.470703,289.79102 c -0.289217,9.9e-4 -0.528489,0.24203 -0.527344,0.53125 9.92e-4,0.28775 0.239586,0.52635 0.527344,0.52734 0.289209,0.001 0.530254,-0.23813 0.53125,-0.52734 0.0012,-0.29067 -0.240582,-0.5324 -0.53125,-0.53125 z"
         style="color:#000000;font-style:normal;font-variant:normal;font-weight:normal;font-stretch:normal;font-size:medium;line-height:normal;font-family:sans-serif;font-variant-ligatures:normal;font-variant-position:normal;font-variant-caps:normal;font-variant-numeric:normal;font-variant-alternates:normal;font-variant-east-asian:normal;font-feature-settings:normal;font-variation-settings:normal;text-indent:0;text-align:start;text-decoration:none;text-decoration-line:none;text-decoration-style:solid;text-decoration-color:#000000;letter-spacing:normal;word-spacing:normal;text-transform:none;writing-mode:lr-tb;direction:ltr;text-orientation:mixed;dominant-baseline:auto;baseline-shift:baseline;text-anchor:start;white-space:normal;shape-padding:0;shape-margin:0;inline-size:0;clip-rule:nonzero;display:inline;overflow:visible;visibility:visible;isolation:auto;mix-blend-mode:normal;color-interpolation:sRGB;color-interpolation-filters:linearRGB;solid-color:#000000;solid-opacity:1;vector-effect:none;fill:#d0e2ee;fill-opacity:1;fill-rule:nonzero;stroke:none;stroke-width:0.423923;stroke-linecap:round;stroke-linejoin:round;stroke-miterlimit:1.5;stroke-dasharray:none;stroke-dashoffset:0;stroke-opacity:1;color-rendering:auto;image-rendering:auto;shape-rendering:auto;text-rendering:auto;enable-background:accumulate;stop-color:#000000" />
      <path
         d="m 69.472768,287.73234 c -0.08933,0 -0.177597,0.005 -0.264584,0.0139 1.268254,0.13277 2.260846,1.20879 2.260844,2.51148 2e-6,1.3027 -0.99259,2.37871 -2.260844,2.51147 0.08699,0.009 0.17525,0.0139 0.264584,0.0139 1.392036,0 2.525432,-1.13338 2.525426,-2.52542 6e-6,-1.39203 -1.13339,-2.52543 -2.525426,-2.52543 z"
         style="color:#000000;font-style:normal;font-variant:normal;font-weight:normal;font-stretch:normal;font-size:medium;line-height:normal;font-family:sans-serif;font-variant-ligatures:normal;font-variant-position:normal;font-variant-caps:normal;font-variant-numeric:normal;font-variant-alternates:normal;font-variant-east-asian:normal;font-feature-settings:normal;font-variation-settings:normal;text-indent:0;text-align:start;text-decoration:none;text-decoration-line:none;text-decoration-style:solid;text-decoration-color:#000000;letter-spacing:normal;word-spacing:normal;text-transform:none;writing-mode:lr-tb;direction:ltr;text-orientation:mixed;dominant-baseline:auto;baseline-shift:baseline;text-anchor:start;white-space:normal;shape-padding:0;shape-margin:0;inline-size:0;clip-rule:nonzero;display:inline;overflow:visible;visibility:visible;isolation:auto;mix-blend-mode:normal;color-interpolation:sRGB;color-interpolation-filters:linearRGB;solid-color:#000000;solid-opacity:1;vector-effect:none;fill:#deded2;fill-opacity:1;fill-rule:nonzero;stroke:none;stroke-width:0.423921;stroke-linecap:round;stroke-linejoin:round;stroke-miterlimit:1.5;stroke-dasharray:none;stroke-dashoffset:0;stroke-opacity:1;color-rendering:auto;image-rendering:auto;shape-rendering:auto;text-rendering:auto;enable-background:accumulate;stop-color:#000000"
         id="path1748" />
      <path
         d="m 77.146577,285.94965 c 0.0013,0.0167 0.0021,0.0335 0.0031,0.0503 l 0.538156,0.80488 a 0.26831898,0.26831898 0 0 1 0.01363,0.27353 c -0.214647,0.41262 -0.488428,0.58493 -0.686975,0.6875 -0.98116,0.57053 -1.976003,0.51159 -2.857937,0 -0.309907,-0.1682 -0.504065,-0.42402 -0.667589,-0.65606 a 0.26831898,0.26831898 0 0 1 -0.0079,-0.30078 l 0.426018,-0.6634 c -0.0173,-0.009 -0.04609,-0.0195 -0.0676,-0.0293 a 0.30823345,0.28181133 86.799722 0 1 0.07493,0.021 c 1.124215,0.51836 2.224578,0.41003 3.203261,-0.17292 a 0.30823345,0.28181133 86.799722 0 1 0.02882,-0.0147 z"
         style="color:#000000;font-style:normal;font-variant:normal;font-weight:normal;font-stretch:normal;font-size:medium;line-height:normal;font-family:sans-serif;font-variant-ligatures:normal;font-variant-position:normal;font-variant-caps:normal;font-variant-numeric:normal;font-variant-alternates:normal;font-variant-east-asian:normal;font-feature-settings:normal;font-variation-settings:normal;text-indent:0;text-align:start;text-decoration:none;text-decoration-line:none;text-decoration-style:solid;text-decoration-color:#000000;letter-spacing:normal;word-spacing:normal;text-transform:none;writing-mode:lr-tb;direction:ltr;text-orientation:mixed;dominant-baseline:auto;baseline-shift:baseline;text-anchor:start;white-space:normal;shape-padding:0;shape-margin:0;inline-size:0;clip-rule:nonzero;display:inline;overflow:visible;visibility:visible;isolation:auto;mix-blend-mode:normal;color-interpolation:sRGB;color-interpolation-filters:linearRGB;solid-color:#000000;solid-opacity:1;vector-effect:none;fill:#f5f6e8;fill-opacity:1;fill-rule:nonzero;stroke:none;stroke-width:0.423922;stroke-linecap:round;stroke-linejoin:round;stroke-miterlimit:1.5;stroke-dasharray:none;stroke-dashoffset:0;stroke-opacity:1;color-rendering:auto;image-rendering:auto;shape-rendering:auto;text-rendering:auto;enable-background:accumulate;stop-color:#000000"
         id="path1486" />
      <path
         id="path1488"
         style="color:#000000;font-style:normal;font-variant:normal;font-weight:normal;font-stretch:normal;font-size:medium;line-height:normal;font-family:sans-serif;font-variant-ligatures:normal;font-variant-position:normal;font-variant-caps:normal;font-variant-numeric:normal;font-variant-alternates:normal;font-variant-east-asian:normal;font-feature-settings:normal;font-variation-settings:normal;text-indent:0;text-align:start;text-decoration:none;text-decoration-line:none;text-decoration-style:solid;text-decoration-color:#000000;letter-spacing:normal;word-spacing:normal;text-transform:none;writing-mode:lr-tb;direction:ltr;text-orientation:mixed;dominant-baseline:auto;baseline-shift:baseline;text-anchor:start;white-space:normal;shape-padding:0;shape-margin:0;inline-size:0;clip-rule:nonzero;display:inline;overflow:visible;visibility:visible;isolation:auto;mix-blend-mode:normal;color-interpolation:sRGB;color-interpolation-filters:linearRGB;solid-color:#000000;solid-opacity:1;vector-effect:none;fill:#deded2;fill-opacity:1;fill-rule:nonzero;stroke:none;stroke-width:0.423923;stroke-linecap:round;stroke-linejoin:round;stroke-miterlimit:1.5;stroke-dasharray:none;stroke-dashoffset:0;stroke-opacity:1;color-rendering:auto;image-rendering:auto;shape-rendering:auto;text-rendering:auto;enable-background:accumulate;stop-color:#000000"
         d="m 65.242532,286.48485 c -0.124857,0.14812 -0.271359,0.29009 -0.467156,0.39636 -0.881933,0.51159 -1.876547,0.57053 -2.857706,0 -0.137068,-0.0708 -0.30982,-0.18073 -0.47439,-0.37414 l -0.198954,0.29766 a 0.26831899,0.26831899 0 0 0 -0.01395,0.27337 c 0.214645,0.41262 0.488749,0.58524 0.687295,0.68781 0.981159,0.57053 1.975773,0.51159 2.857706,0 0.309906,-0.1682 0.504137,-0.42425 0.66766,-0.65629 a 0.26831899,0.26831899 0 0 0 0.0078,-0.30076 z" />
      <path
         d="m 73.686142,286.48485 c 0.124857,0.14812 0.271359,0.29009 0.467156,0.39636 0.881933,0.51159 1.876547,0.57053 2.857706,0 0.137068,-0.0708 0.30982,-0.18073 0.47439,-0.37414 l 0.198954,0.29766 a 0.26831899,0.26831899 0 0 1 0.01395,0.27337 c -0.214645,0.41262 -0.488749,0.58524 -0.687295,0.68781 -0.981159,0.57053 -1.975773,0.51159 -2.857706,0 -0.309906,-0.1682 -0.504137,-0.42425 -0.66766,-0.65629 a 0.26831899,0.26831899 0 0 1 -0.0078,-0.30076 z"
         style="color:#000000;font-style:normal;font-variant:normal;font-weight:normal;font-stretch:normal;font-size:medium;line-height:normal;font-family:sans-serif;font-variant-ligatures:normal;font-variant-position:normal;font-variant-caps:normal;font-variant-numeric:normal;font-variant-alternates:normal;font-variant-east-asian:normal;font-feature-settings:normal;font-variation-settings:normal;text-indent:0;text-align:start;text-decoration:none;text-decoration-line:none;text-decoration-style:solid;text-decoration-color:#000000;letter-spacing:normal;word-spacing:normal;text-transform:none;writing-mode:lr-tb;direction:ltr;text-orientation:mixed;dominant-baseline:auto;baseline-shift:baseline;text-anchor:start;white-space:normal;shape-padding:0;shape-margin:0;inline-size:0;clip-rule:nonzero;display:inline;overflow:visible;visibility:visible;isolation:auto;mix-blend-mode:normal;color-interpolation:sRGB;color-interpolation-filters:linearRGB;solid-color:#000000;solid-opacity:1;vector-effect:none;fill:#deded2;fill-opacity:1;fill-rule:nonzero;stroke:none;stroke-width:0.423923;stroke-linecap:round;stroke-linejoin:round;stroke-miterlimit:1.5;stroke-dasharray:none;stroke-dashoffset:0;stroke-opacity:1;color-rendering:auto;image-rendering:auto;shape-rendering:auto;text-rendering:auto;enable-background:accumulate;stop-color:#000000"
         id="path1494" />
    </g>
  </g>
</svg>
